<?xml version="1.0" encoding="UTF-8"?>
<!DOCTYPE svg PUBLIC "-//W3C//DTD SVG 1.1//EN" "http://www.w3.org/Graphics/SVG/1.1/DTD/svg11.dtd">
<svg xmlns="http://www.w3.org/2000/svg" xmlns:xlink="http://www.w3.org/1999/xlink" version="1.1" width="512px"
    height="512px" viewBox="-0.5 -0.5 512 512">
    <defs />
    <g>
        <rect x="16" y="81.4" width="237.65" height="29.1" rx="4.36" ry="4.36" fill="#ffffff" stroke="none"
            pointer-events="all" />
        <rect x="64.5" y="149.3" width="189.15" height="29.1" rx="4.36" ry="4.36" fill="#ffffff" stroke="none"
            pointer-events="all" />
        <rect x="16" y="212.35" width="237.65" height="29.1" rx="4.36" ry="4.36" fill="#ffffff" stroke="none"
            pointer-events="all" />
        <rect x="64.5" y="275.4" width="189.15" height="29.1" rx="4.36" ry="4.36" fill="#ffffff" stroke="none"
            pointer-events="all" />
        <rect x="16" y="343.3" width="237.65" height="29.1" rx="4.36" ry="4.36" fill="#ffffff" stroke="none"
            pointer-events="all" />
        <rect x="93.6" y="406.35" width="160.05" height="29.1" rx="4.36" ry="4.36" fill="#ffffff" stroke="none"
            pointer-events="all" />
        <path
            d="M 302.15 62 C 371.72 62 435.96 99.25 470.52 159.63 C 505.08 220.01 504.66 294.27 469.43 354.26 C 434.19 414.24 369.54 450.77 299.97 449.99 L 300.23 426.71 C 361.45 427.4 418.35 395.25 449.35 342.47 C 480.36 289.68 480.73 224.33 450.32 171.19 C 419.9 118.06 363.37 85.28 302.15 85.28 Z"
            fill="#ffffff" stroke="none" pointer-events="all" />
        <path
            d="M 302.15 134.75 C 345.63 134.75 385.78 158.03 407.38 195.77 C 428.98 233.51 428.72 279.92 406.7 317.41 C 384.68 354.9 344.27 377.73 300.79 377.24 L 301.02 356.63 C 337.11 357.04 370.65 338.09 388.93 306.97 C 407.2 275.85 407.42 237.33 389.49 206.01 C 371.57 174.69 338.24 155.36 302.15 155.36 Z"
            fill="#ffffff" stroke="none" pointer-events="all" />
        <path
            d="M 302.15 192.95 C 323.89 192.95 343.97 204.59 354.77 223.46 C 365.57 242.33 365.44 265.53 354.42 284.28 C 343.41 303.03 323.21 314.44 301.47 314.2 L 301.7 293.58 C 316.05 293.75 329.38 286.21 336.65 273.84 C 343.92 261.47 344 246.15 336.88 233.7 C 329.75 221.25 316.5 213.56 302.15 213.56 Z"
            fill="#ffffff" stroke="none" pointer-events="all" />
    </g>
</svg>